<?xml version="1.0" encoding="utf-8"?>
<!-- Generator: Adobe Illustrator 26.0.1, SVG Export Plug-In . SVG Version: 6.00 Build 0)  -->
<svg version="1.1" id="Layer_1" xmlns="http://www.w3.org/2000/svg" xmlns:xlink="http://www.w3.org/1999/xlink" x="0px" y="0px"
	 viewBox="0 0 16 16" style="enable-background:new 0 0 16 16;" xml:space="preserve">
<style type="text/css">
	.st0{fill:#029599;}
</style>
<g>
	<g>
		<g>
			<g>
				<g>
					<path class="st0" d="M13.05,7.3c0.96-2.16,1.33-4.49,1.13-6.78c-2.28,0.24-4.51,1.04-6.44,2.39c1.04,0.49,2.02,1.12,2.93,1.87
						C11.57,5.53,12.36,6.38,13.05,7.3z"/>
				</g>
				<path class="st0" d="M10.39,5.11C9.44,4.33,8.42,3.7,7.33,3.2C6.47,3.85,5.67,4.61,4.95,5.48c-0.72,0.87-1.31,1.8-1.78,2.77
					c0.69,0.97,1.51,1.86,2.45,2.64c0.94,0.78,1.97,1.42,3.05,1.91c0.87-0.65,1.67-1.41,2.39-2.28c0.72-0.87,1.31-1.8,1.78-2.77
					C12.15,6.78,11.33,5.89,10.39,5.11z"/>
				<path class="st0" d="M2.95,8.7C2,10.85,1.63,13.19,1.82,15.48c2.28-0.24,4.51-1.04,6.45-2.39c-1.04-0.49-2.02-1.12-2.93-1.87
					C4.43,10.47,3.64,9.62,2.95,8.7z"/>
				<g>
					<path class="st0" d="M0.76,2.02C3.05,1.86,5.3,2.27,7.33,3.2c0.13-0.1,0.26-0.19,0.4-0.29C5.5,1.85,3.03,1.4,0.51,1.61
						L0.29,1.63l0.02,0.22C0.58,4.36,1.49,6.71,2.95,8.7c0.07-0.15,0.14-0.3,0.21-0.44C1.87,6.42,1.04,4.3,0.76,2.02z"/>
				</g>
				<g>
					<path class="st0" d="M15.69,14.15c-0.27-2.51-1.18-4.86-2.64-6.85c-0.07,0.15-0.14,0.3-0.21,0.44c1.29,1.83,2.12,3.96,2.4,6.23
						c-2.29,0.16-4.53-0.25-6.57-1.18c-0.13,0.1-0.26,0.19-0.4,0.29c1.87,0.89,3.92,1.36,6.02,1.36c0.4,0,0.8-0.02,1.21-0.05
						l0.22-0.02L15.69,14.15z"/>
				</g>
			</g>
		</g>
	</g>
</g>
</svg>
