<?xml version="1.0" encoding="utf-8"?>
<!-- Generator: Adobe Illustrator 26.0.1, SVG Export Plug-In . SVG Version: 6.00 Build 0)  -->
<svg version="1.1" id="Layer_1" xmlns="http://www.w3.org/2000/svg" xmlns:xlink="http://www.w3.org/1999/xlink" x="0px" y="0px"
	 viewBox="0 0 257 76" style="enable-background:new 0 0 257 76;" xml:space="preserve">
<style type="text/css">
	.st0{fill:#141212;}
	.st1{fill:#029599;}
</style>
<g>
	<g>
		<path class="st0" d="M81.81,14.91V8.07h25.64v6.84L91.27,38.95v1.03h16.18v6.84H81.81v-6.78L98,15.93v-1.03H81.81z"/>
		<path class="st0" d="M111.33,46.81l8.72-38.74h14.93l8.72,38.74h-7.86l-1.54-7.01h-13.56l-1.54,7.01H111.33z M126.14,14.57
			l-3.93,18.4h10.6l-3.93-18.4H126.14z"/>
		<path class="st0" d="M171.72,46.81V30.75h-14.42v16.07h-7.86V8.07h7.86v15.84h14.42V8.07h7.86v38.74H171.72z"/>
		<path class="st0" d="M196.45,33.82v12.99h-7.86V8.07h15.04c9.12,0,13.67,4.25,13.67,12.76c0,5.05-1.9,8.77-5.7,11.17l5.53,14.81
			h-8.6l-4.5-12.99H196.45z M207.9,25.39c0.91-1.14,1.37-2.64,1.37-4.5c0-1.86-0.48-3.34-1.45-4.44c-0.97-1.1-2.36-1.65-4.19-1.65
			h-7.18V27.1h7.29C205.6,27.1,206.99,26.53,207.9,25.39z"/>
		<path class="st0" d="M221.23,46.81l8.72-38.74h14.93l8.72,38.74h-7.86l-1.54-7.01h-13.56l-1.54,7.01H221.23z M236.05,14.57
			l-3.93,18.4h10.6l-3.93-18.4H236.05z"/>
	</g>
	<g>
		<g>
			<path class="st0" d="M82.68,71.51h-0.85V56.07h0.85V71.51z"/>
			<path class="st0" d="M94.31,63.44v8.07h-0.79v-8.07c0-0.45-0.09-0.84-0.28-1.18c-0.19-0.33-0.43-0.61-0.73-0.83
				s-0.64-0.38-1.01-0.48s-0.76-0.15-1.16-0.15c-0.63,0-1.24,0.07-1.85,0.21c-0.61,0.14-1.11,0.29-1.48,0.45v10.05h-0.79V60.82
				c0.65-0.23,1.33-0.43,2.02-0.59s1.39-0.24,2.1-0.24c0.49,0.01,0.98,0.09,1.46,0.24c0.48,0.15,0.9,0.36,1.28,0.64
				s0.67,0.64,0.89,1.07S94.31,62.87,94.31,63.44z"/>
			<path class="st0" d="M101,71.7c-0.39,0-0.78-0.04-1.16-0.13c-0.45-0.12-0.85-0.32-1.19-0.6s-0.61-0.65-0.82-1.1
				c-0.2-0.45-0.31-0.99-0.31-1.61V57.68h0.72l0.07,2.53h2.44v0.74h-2.44v7.3c0,0.51,0.09,0.94,0.27,1.3
				c0.18,0.36,0.41,0.64,0.7,0.86c0.28,0.22,0.6,0.37,0.95,0.46c0.28,0.07,0.54,0.11,0.81,0.11c0.09,0,0.17-0.01,0.26-0.02v0.74
				C101.2,71.7,101.1,71.7,101,71.7z"/>
			<path class="st0" d="M103.75,68.28c0,0.47,0.09,0.86,0.27,1.19s0.42,0.6,0.73,0.82c0.31,0.22,0.65,0.38,1.05,0.48
				s0.8,0.15,1.22,0.15c0.61,0,1.18-0.11,1.72-0.34c0.54-0.22,0.95-0.58,1.24-1.08l0.72,0.37c-0.17,0.32-0.39,0.6-0.65,0.83
				s-0.56,0.42-0.88,0.58c-0.33,0.15-0.67,0.27-1.04,0.34c-0.36,0.07-0.73,0.11-1.11,0.11c-0.51,0-1.01-0.07-1.49-0.22
				c-0.49-0.15-0.92-0.36-1.31-0.64c-0.39-0.28-0.69-0.64-0.93-1.07c-0.23-0.43-0.35-0.93-0.35-1.52v-4.84
				c0-0.58,0.12-1.09,0.35-1.51c0.23-0.43,0.54-0.79,0.93-1.07c0.38-0.28,0.82-0.5,1.31-0.64c0.49-0.14,0.98-0.22,1.49-0.22
				c0.49,0,0.98,0.07,1.47,0.22c0.49,0.15,0.92,0.36,1.31,0.64c0.38,0.28,0.69,0.64,0.93,1.07c0.23,0.43,0.35,0.93,0.35,1.51v2.97
				h-7.33V68.28z M110.29,63.39c0-0.45-0.09-0.84-0.28-1.17c-0.19-0.33-0.44-0.6-0.74-0.82c-0.31-0.22-0.65-0.38-1.05-0.49
				s-0.79-0.16-1.2-0.16c-0.42,0-0.83,0.05-1.22,0.16s-0.74,0.27-1.05,0.49c-0.31,0.22-0.55,0.49-0.73,0.82s-0.27,0.72-0.27,1.17
				v2.29h6.54V63.39z"/>
			<path class="st0" d="M117.56,59.97c0.22,0,0.47,0.01,0.73,0.04v0.76c-0.2-0.03-0.39-0.04-0.57-0.04c-0.04,0-0.09,0-0.13,0
				c-0.22,0.02-0.45,0.04-0.7,0.09c-0.61,0.12-1.14,0.39-1.59,0.83c-0.45,0.44-0.68,1.03-0.68,1.77v8.09h-0.78v-8.09
				c0-0.47,0.08-0.89,0.23-1.28c0.15-0.38,0.37-0.72,0.64-1c0.28-0.28,0.59-0.52,0.95-0.71s0.75-0.32,1.17-0.39
				C117.09,59.99,117.33,59.97,117.56,59.97z"/>
			<path class="st0" d="M128.37,63.44v8.07h-0.79v-8.07c0-0.45-0.09-0.84-0.28-1.18c-0.19-0.33-0.43-0.61-0.73-0.83
				s-0.64-0.38-1.01-0.48c-0.38-0.1-0.76-0.15-1.16-0.15c-0.62,0-1.24,0.07-1.85,0.21c-0.61,0.14-1.1,0.29-1.48,0.45v10.05h-0.79
				V60.82c0.65-0.23,1.33-0.43,2.02-0.59s1.39-0.24,2.1-0.24c0.49,0.01,0.98,0.09,1.46,0.24s0.91,0.36,1.28,0.64
				c0.37,0.28,0.67,0.64,0.89,1.07S128.37,62.87,128.37,63.44z"/>
			<path class="st0" d="M138.24,63.31c0-0.45-0.09-0.84-0.28-1.17c-0.19-0.33-0.44-0.6-0.75-0.81c-0.31-0.21-0.67-0.36-1.07-0.46
				c-0.4-0.09-0.81-0.14-1.23-0.14c-1.08,0-2.01,0.37-2.81,1.11l-0.48-0.52c0.47-0.48,0.99-0.82,1.57-1.03s1.2-0.31,1.85-0.31
				c0.51,0,1,0.07,1.48,0.21c0.48,0.14,0.91,0.34,1.28,0.62c0.37,0.28,0.67,0.62,0.89,1.04s0.34,0.9,0.34,1.45v7.78
				c-0.7,0.23-1.42,0.4-2.16,0.5c-0.65,0.09-1.31,0.13-1.96,0.13c-0.1,0-0.2,0-0.28,0c-0.52,0-1.01-0.08-1.46-0.23
				c-0.45-0.15-0.84-0.38-1.18-0.68c-0.33-0.3-0.6-0.66-0.8-1.09s-0.29-0.92-0.29-1.47c0-0.62,0.12-1.16,0.35-1.59
				s0.54-0.79,0.93-1.07c0.38-0.28,0.83-0.48,1.33-0.6c0.5-0.12,1.02-0.19,1.56-0.19c0.49,0,1.02,0.05,1.58,0.14s1.09,0.26,1.6,0.49
				V63.31z M135.04,65.49c-0.44,0-0.86,0.04-1.26,0.13c-0.41,0.09-0.77,0.24-1.08,0.46c-0.31,0.22-0.56,0.5-0.75,0.86
				c-0.19,0.36-0.28,0.8-0.28,1.32c0,0.48,0.08,0.89,0.23,1.24c0.15,0.35,0.37,0.64,0.64,0.86c0.28,0.23,0.6,0.39,0.96,0.5
				c0.36,0.11,0.76,0.16,1.2,0.16c0.12,0,0.22,0,0.33,0c0.49,0,0.97-0.03,1.42-0.09c0.54-0.06,1.14-0.17,1.81-0.35v-4.45
				c-0.44-0.17-0.94-0.33-1.51-0.46C136.15,65.55,135.59,65.49,135.04,65.49z"/>
			<path class="st0" d="M145.68,71.7c-0.39,0-0.78-0.04-1.16-0.13c-0.45-0.12-0.85-0.32-1.19-0.6c-0.34-0.28-0.62-0.65-0.82-1.1
				c-0.2-0.45-0.3-0.99-0.3-1.61V57.68h0.72l0.07,2.53h2.44v0.74H143v7.3c0,0.51,0.09,0.94,0.27,1.3c0.18,0.36,0.41,0.64,0.7,0.86
				c0.28,0.22,0.6,0.37,0.95,0.46c0.28,0.07,0.55,0.11,0.81,0.11c0.09,0,0.17-0.01,0.26-0.02v0.74
				C145.88,71.7,145.78,71.7,145.68,71.7z"/>
			<path class="st0" d="M147.6,57.59c0-0.23,0.08-0.43,0.24-0.59s0.36-0.24,0.59-0.24s0.43,0.08,0.59,0.24s0.24,0.36,0.24,0.59
				c0,0.23-0.08,0.43-0.24,0.59s-0.36,0.24-0.59,0.24s-0.43-0.08-0.59-0.24S147.6,57.83,147.6,57.59z M148.73,71.51h-0.79v-11.3
				h0.79V71.51z"/>
			<path class="st0" d="M151.76,63.46c0-0.58,0.12-1.09,0.35-1.52s0.54-0.79,0.93-1.08c0.39-0.29,0.82-0.51,1.31-0.65
				c0.49-0.14,0.98-0.22,1.49-0.22c0.51,0,1.01,0.07,1.49,0.22c0.49,0.15,0.92,0.36,1.3,0.65c0.38,0.29,0.68,0.65,0.92,1.08
				c0.23,0.43,0.35,0.93,0.35,1.52v4.8c0,0.58-0.12,1.09-0.35,1.52c-0.23,0.43-0.54,0.79-0.92,1.08c-0.38,0.29-0.81,0.51-1.3,0.65
				s-0.98,0.22-1.49,0.22c-0.51,0-1.01-0.07-1.49-0.22s-0.92-0.36-1.31-0.65c-0.38-0.29-0.69-0.65-0.93-1.08s-0.35-0.93-0.35-1.52
				V63.46z M155.84,60.8c-0.39,0-0.79,0.05-1.18,0.15s-0.75,0.26-1.06,0.48s-0.57,0.49-0.76,0.83c-0.2,0.33-0.29,0.73-0.29,1.2v4.8
				c0,0.46,0.1,0.87,0.29,1.21c0.2,0.34,0.45,0.62,0.76,0.84s0.67,0.38,1.06,0.48s0.79,0.15,1.18,0.15s0.79-0.05,1.18-0.15
				c0.39-0.1,0.74-0.26,1.05-0.48c0.31-0.22,0.56-0.5,0.75-0.84c0.2-0.34,0.29-0.75,0.29-1.21v-4.8c0-0.46-0.1-0.87-0.29-1.2
				c-0.2-0.33-0.45-0.61-0.75-0.83c-0.3-0.22-0.65-0.38-1.05-0.48C156.62,60.85,156.23,60.8,155.84,60.8z"/>
			<path class="st0" d="M170.97,63.44v8.07h-0.79v-8.07c0-0.45-0.09-0.84-0.28-1.18c-0.19-0.33-0.43-0.61-0.73-0.83
				s-0.64-0.38-1.01-0.48c-0.38-0.1-0.76-0.15-1.16-0.15c-0.62,0-1.24,0.07-1.85,0.21c-0.61,0.14-1.1,0.29-1.48,0.45v10.05h-0.79
				V60.82c0.65-0.23,1.33-0.43,2.02-0.59s1.39-0.24,2.1-0.24c0.49,0.01,0.98,0.09,1.46,0.24s0.91,0.36,1.28,0.64
				c0.37,0.28,0.67,0.64,0.89,1.07S170.97,62.87,170.97,63.44z"/>
			<path class="st0" d="M180.85,63.31c0-0.45-0.09-0.84-0.28-1.17c-0.19-0.33-0.44-0.6-0.75-0.81c-0.31-0.21-0.67-0.36-1.07-0.46
				c-0.4-0.09-0.81-0.14-1.23-0.14c-1.08,0-2.01,0.37-2.81,1.11l-0.48-0.52c0.46-0.48,0.99-0.82,1.57-1.03
				c0.58-0.2,1.2-0.31,1.85-0.31c0.51,0,1,0.07,1.48,0.21c0.48,0.14,0.91,0.34,1.28,0.62c0.37,0.28,0.67,0.62,0.89,1.04
				c0.22,0.41,0.34,0.9,0.34,1.45v7.78c-0.7,0.23-1.42,0.4-2.16,0.5c-0.65,0.09-1.31,0.13-1.96,0.13c-0.1,0-0.2,0-0.28,0
				c-0.52,0-1.01-0.08-1.46-0.23c-0.45-0.15-0.84-0.38-1.18-0.68c-0.33-0.3-0.6-0.66-0.8-1.09c-0.2-0.43-0.29-0.92-0.29-1.47
				c0-0.62,0.12-1.16,0.35-1.59s0.54-0.79,0.93-1.07c0.39-0.28,0.83-0.48,1.33-0.6c0.5-0.12,1.02-0.19,1.56-0.19
				c0.49,0,1.02,0.05,1.58,0.14s1.09,0.26,1.6,0.49V63.31z M177.65,65.49c-0.44,0-0.86,0.04-1.26,0.13
				c-0.41,0.09-0.77,0.24-1.08,0.46s-0.56,0.5-0.75,0.86c-0.19,0.36-0.28,0.8-0.28,1.32c0,0.48,0.08,0.89,0.23,1.24
				c0.15,0.35,0.37,0.64,0.64,0.86c0.28,0.23,0.6,0.39,0.96,0.5s0.76,0.16,1.2,0.16c0.12,0,0.23,0,0.33,0
				c0.49,0,0.97-0.03,1.42-0.09c0.54-0.06,1.14-0.17,1.81-0.35v-4.45c-0.44-0.17-0.94-0.33-1.52-0.46S178.2,65.49,177.65,65.49z"/>
			<path class="st0" d="M184.82,68.37v-12.3h0.78v12.3c0,0.83,0.17,1.46,0.52,1.91c0.35,0.44,0.92,0.66,1.7,0.66v0.79
				c-0.97-0.03-1.72-0.32-2.24-0.88C185.08,70.28,184.82,69.46,184.82,68.37z"/>
			<path class="st0" d="M195.24,59.88c0,0.45,0.09,0.84,0.26,1.16c0.22,0.39,0.53,0.73,0.94,1.01c0.41,0.28,0.88,0.52,1.42,0.71
				s1.11,0.34,1.72,0.46c0.65,0.13,1.3,0.29,1.94,0.48c0.64,0.19,1.21,0.45,1.71,0.8c0.5,0.34,0.91,0.77,1.21,1.3
				c0.25,0.45,0.37,1.01,0.37,1.68c0,0.09,0,0.18,0,0.28c-0.03,0.65-0.2,1.22-0.51,1.71s-0.72,0.9-1.21,1.23s-1.05,0.58-1.67,0.75
				s-1.25,0.25-1.91,0.25c-0.51,0-1.03-0.05-1.56-0.16c-0.53-0.11-1.03-0.28-1.5-0.5s-0.9-0.5-1.29-0.84
				c-0.39-0.33-0.7-0.73-0.93-1.18l0.76-0.35c0.19,0.36,0.45,0.68,0.79,0.96c0.33,0.28,0.7,0.51,1.1,0.7
				c0.4,0.19,0.83,0.33,1.29,0.42c0.46,0.1,0.92,0.14,1.38,0.14c0.52,0,1.03-0.06,1.53-0.17s0.94-0.3,1.34-0.56s0.74-0.58,1.01-0.98
				s0.45-0.88,0.52-1.45c0-0.1,0-0.2,0-0.28c0-0.54-0.1-0.99-0.3-1.35c-0.26-0.44-0.61-0.79-1.06-1.07
				c-0.44-0.28-0.95-0.49-1.53-0.64c-0.58-0.15-1.15-0.29-1.73-0.42c-0.6-0.13-1.19-0.29-1.79-0.49c-0.6-0.2-1.13-0.46-1.61-0.79
				s-0.86-0.75-1.13-1.24c-0.26-0.45-0.39-1-0.39-1.64c0-0.06,0-0.12,0-0.2c0.01-0.62,0.17-1.17,0.47-1.65s0.69-0.87,1.17-1.18
				s1.02-0.54,1.62-0.7c0.6-0.15,1.22-0.23,1.87-0.23c0.52,0,1.05,0.05,1.57,0.16s1.01,0.27,1.47,0.48
				c0.46,0.21,0.87,0.48,1.24,0.81c0.37,0.33,0.67,0.71,0.88,1.14l-0.76,0.33c-0.19-0.35-0.44-0.66-0.76-0.93
				c-0.32-0.27-0.68-0.49-1.07-0.68s-0.81-0.32-1.25-0.41c-0.44-0.1-0.88-0.14-1.32-0.14c-0.52,0-1.04,0.05-1.54,0.15
				c-0.5,0.1-0.95,0.27-1.34,0.51c-0.39,0.24-0.72,0.55-0.97,0.94c-0.25,0.38-0.4,0.85-0.45,1.41
				C195.24,59.71,195.24,59.8,195.24,59.88z"/>
			<path class="st0" d="M211.33,60.78c-0.41,0-0.81,0.05-1.2,0.15s-0.74,0.26-1.05,0.48c-0.3,0.22-0.55,0.49-0.74,0.82
				c-0.19,0.33-0.28,0.72-0.28,1.17v4.88c0,0.47,0.09,0.87,0.28,1.2c0.19,0.33,0.44,0.61,0.74,0.83c0.31,0.22,0.65,0.38,1.05,0.48
				s0.79,0.15,1.2,0.15c0.65,0,1.27-0.14,1.85-0.41c0.58-0.28,1-0.69,1.24-1.24l0.72,0.35c-0.32,0.68-0.84,1.2-1.55,1.56
				c-0.71,0.36-1.47,0.53-2.27,0.53c-0.51,0-1-0.07-1.48-0.22s-0.91-0.36-1.3-0.64c-0.38-0.28-0.69-0.64-0.93-1.07
				c-0.23-0.43-0.35-0.93-0.35-1.52v-4.84c0-0.58,0.12-1.09,0.35-1.51c0.23-0.43,0.54-0.79,0.93-1.07c0.39-0.28,0.82-0.5,1.3-0.64
				c0.48-0.14,0.97-0.22,1.48-0.22c0.71,0,1.39,0.13,2.04,0.4c0.65,0.27,1.15,0.69,1.52,1.25l-0.63,0.41
				c-0.29-0.44-0.7-0.76-1.23-0.97C212.49,60.88,211.93,60.78,211.33,60.78z"/>
			<path class="st0" d="M221.82,59.99c0.47,0,0.92,0.07,1.37,0.2c0.48,0.15,0.91,0.36,1.29,0.65s0.68,0.65,0.92,1.08
				c0.23,0.43,0.35,0.93,0.35,1.49v8.09h-0.79v-8.09c0-0.45-0.09-0.84-0.28-1.17c-0.19-0.33-0.44-0.6-0.74-0.82
				c-0.3-0.22-0.65-0.38-1.04-0.49c-0.39-0.11-0.78-0.16-1.19-0.16c-0.52,0-1.07,0.06-1.64,0.17s-1.12,0.28-1.66,0.5v10.05h-0.79
				V56.07h0.79v4.73c1.15-0.54,2.24-0.81,3.27-0.81C221.74,59.99,221.78,59.99,221.82,59.99z"/>
			<path class="st0" d="M228.71,63.46c0-0.58,0.12-1.09,0.35-1.52s0.54-0.79,0.93-1.08c0.39-0.29,0.82-0.51,1.31-0.65
				c0.49-0.14,0.98-0.22,1.49-0.22c0.51,0,1.01,0.07,1.49,0.22c0.49,0.15,0.92,0.36,1.3,0.65c0.38,0.29,0.68,0.65,0.92,1.08
				c0.23,0.43,0.35,0.93,0.35,1.52v4.8c0,0.58-0.12,1.09-0.35,1.52c-0.23,0.43-0.54,0.79-0.92,1.08c-0.38,0.29-0.81,0.51-1.3,0.65
				s-0.98,0.22-1.49,0.22c-0.51,0-1.01-0.07-1.49-0.22s-0.92-0.36-1.31-0.65c-0.38-0.29-0.69-0.65-0.93-1.08s-0.35-0.93-0.35-1.52
				V63.46z M232.79,60.8c-0.39,0-0.79,0.05-1.18,0.15s-0.75,0.26-1.06,0.48s-0.57,0.49-0.76,0.83c-0.2,0.33-0.29,0.73-0.29,1.2v4.8
				c0,0.46,0.1,0.87,0.29,1.21c0.2,0.34,0.45,0.62,0.76,0.84s0.67,0.38,1.06,0.48s0.79,0.15,1.18,0.15s0.79-0.05,1.18-0.15
				c0.39-0.1,0.74-0.26,1.05-0.48c0.31-0.22,0.56-0.5,0.75-0.84c0.2-0.34,0.29-0.75,0.29-1.21v-4.8c0-0.46-0.1-0.87-0.29-1.2
				c-0.2-0.33-0.45-0.61-0.75-0.83c-0.3-0.22-0.65-0.38-1.05-0.48C233.58,60.85,233.18,60.8,232.79,60.8z"/>
			<path class="st0" d="M239.55,63.46c0-0.58,0.12-1.09,0.35-1.52s0.54-0.79,0.93-1.08c0.38-0.29,0.82-0.51,1.31-0.65
				c0.49-0.14,0.98-0.22,1.49-0.22s1.01,0.07,1.49,0.22c0.49,0.15,0.92,0.36,1.3,0.65c0.38,0.29,0.68,0.65,0.92,1.08
				s0.35,0.93,0.35,1.52v4.8c0,0.58-0.12,1.09-0.35,1.52s-0.54,0.79-0.92,1.08c-0.38,0.29-0.81,0.51-1.3,0.65
				c-0.49,0.15-0.99,0.22-1.49,0.22s-1.01-0.07-1.49-0.22c-0.49-0.15-0.92-0.36-1.31-0.65c-0.39-0.29-0.69-0.65-0.93-1.08
				s-0.35-0.93-0.35-1.52V63.46z M243.63,60.8c-0.39,0-0.79,0.05-1.18,0.15s-0.75,0.26-1.06,0.48s-0.57,0.49-0.76,0.83
				c-0.2,0.33-0.29,0.73-0.29,1.2v4.8c0,0.46,0.1,0.87,0.29,1.21c0.2,0.34,0.45,0.62,0.76,0.84s0.67,0.38,1.06,0.48
				s0.79,0.15,1.18,0.15s0.79-0.05,1.18-0.15s0.74-0.26,1.05-0.48c0.3-0.22,0.56-0.5,0.75-0.84c0.2-0.34,0.29-0.75,0.29-1.21v-4.8
				c0-0.46-0.1-0.87-0.29-1.2c-0.2-0.33-0.45-0.61-0.75-0.83c-0.31-0.22-0.65-0.38-1.05-0.48S244.02,60.8,243.63,60.8z"/>
			<path class="st0" d="M250.65,68.37v-12.3h0.79v12.3c0,0.83,0.17,1.46,0.52,1.91s0.92,0.66,1.7,0.66v0.79
				c-0.97-0.03-1.72-0.32-2.24-0.88C250.91,70.28,250.65,69.46,250.65,68.37z"/>
		</g>
	</g>
	<g>
		<g>
			<g>
				<path class="st1" d="M51.91,37.47c3.31-7.46,4.58-15.54,3.91-23.46c-7.9,0.83-15.59,3.61-22.3,8.27
					c3.59,1.71,6.99,3.87,10.13,6.46C46.79,31.33,49.55,34.26,51.91,37.47z"/>
			</g>
			<path class="st1" d="M42.71,29.88c-3.26-2.69-6.81-4.9-10.56-6.61c-2.99,2.24-5.77,4.86-8.26,7.87
				c-2.49,3.01-4.54,6.23-6.17,9.59c2.38,3.36,5.23,6.43,8.48,9.12c3.26,2.69,6.81,4.9,10.56,6.61c2.99-2.24,5.77-4.86,8.26-7.87
				s4.54-6.23,6.17-9.59C48.81,35.64,45.96,32.57,42.71,29.88z"/>
			<path class="st1" d="M17,42.28c-3.31,7.46-4.58,15.54-3.91,23.45c7.9-0.83,15.59-3.61,22.3-8.27c-3.59-1.71-6.99-3.87-10.13-6.46
				C22.11,48.41,19.35,45.48,17,42.28z"/>
			<g>
				<path class="st1" d="M9.42,19.18c7.91-0.54,15.68,0.88,22.73,4.09c0.45-0.34,0.91-0.67,1.38-1c-7.71-3.67-16.28-5.25-25-4.51
					l-0.75,0.06l0.08,0.75c0.92,8.7,4.09,16.82,9.14,23.7c0.23-0.52,0.47-1.03,0.72-1.54C13.24,34.42,10.37,27.05,9.42,19.18z"/>
			</g>
			<g>
				<path class="st1" d="M61.05,61.16c-0.92-8.7-4.09-16.82-9.14-23.7c-0.23,0.52-0.47,1.03-0.72,1.54
					c4.48,6.32,7.34,13.68,8.3,21.56c-7.91,0.54-15.68-0.88-22.73-4.09c-0.45,0.34-0.91,0.67-1.38,1
					c6.47,3.08,13.55,4.69,20.81,4.69c1.39,0,2.78-0.06,4.18-0.18l0.75-0.06L61.05,61.16z"/>
			</g>
			<path class="st1" d="M63.08,71.72H5.82c-1.77,0-3.22-1.44-3.22-3.22V11.24c0-1.77,1.44-3.22,3.22-3.22h57.26
				c1.77,0,3.22,1.44,3.22,3.22V68.5C66.3,70.27,64.86,71.72,63.08,71.72z M5.82,8.97c-1.25,0-2.27,1.02-2.27,2.27V68.5
				c0,1.25,1.02,2.27,2.27,2.27h57.26c1.25,0,2.27-1.02,2.27-2.27V11.24c0-1.25-1.02-2.27-2.27-2.27H5.82z"/>
		</g>
	</g>
</g>
</svg>
